<svg version="1.1" id="Layer_1" xmlns="http://www.w3.org/2000/svg"
	xmlns:xlink="http://www.w3.org/1999/xlink" x="0px" y="0px" viewBox="0 0 512 512"
	style="enable-background:new 0 0 512 512;" xml:space="preserve">
	<style type="text/css">
		.st0 {
			fill: #EB5C54;
		}

		.st1 {
			fill: #D74440;
		}

		.st2 {
			fill: #5FBED6;
		}

		.st3 {
			fill: #4DA2B3;
		}

		.st4 {
			fill: #314953;
		}

		.st5 {
			fill: #324954;
		}

		.st6 {
			fill: #344C56;
		}

		.st7 {
			fill: #D34440;
		}

		.st8 {
			fill: #E8DDDD;
		}

		.st9 {
			fill: #334A54;
		}

		.st10 {
			fill: #263141;
		}

		.st11 {
			fill: #4DA3B3;
		}
	</style>
	<g>
		<path class="st0" d="M269.1,504.3c-18.7,1.5-37.3,0-55.7-3.2c-41.2-7.2-78.5-23.6-111.2-49.6c-46-36.6-75.7-83.7-89-141
		c-4.5-19.7-6.7-39.7-6-59.8c2.6-74.5,32.1-136.4,88.6-184.9c32.8-28.2,70.9-46.5,113.5-54.1c74.9-13.4,143,3.1,202.7,50.6
		c46.9,37.4,76,86.2,88.1,145c3.6,17.5,5.2,35.3,4.8,53.1c-0.4,19.9-2.9,39.6-8.2,58.9c-0.7-0.9-1.4-1.8-2.2-2.6
		C438.9,261.1,383.3,205.5,327.8,150c-0.9-0.9-1.9-1.5-2.9-2.3c-1.8-2.9-4.2-5-7.7-5c-20.2,0-40.4,0.1-60.6,0.1
		c-0.9,0-1.9-0.1-2.8-0.1c-41.8,0-83.5,0-125.3,0c-7.2,0-10.4,3.1-10.4,10.4c0,8.1,0,16.2,0,24.3c-15.5,0-31,0.1-46.6,0.1
		c-3,0-5.6,0.6-6.7,3.8c-1.1,3.2,0.7,5.3,3.2,6.9c4,4.1,8,8.2,12,12.3c1.2,1.2,2.5,2.2,3.8,3.4c-4.3,4.2-3.9,7.6,1,10.5
		c0.3,0.6,0.5,1.4,1,1.8c4.4,4.4,8.9,8.8,13.4,13.1c-0.8,0-1.6,0.1-2.5,0.1c-3.9,0.1-6.2,1.4-6.8,4.2c-0.7,3.2,0.9,5.3,3.6,6.8
		c8.1,8.3,16.2,16.7,24.4,25c0,10.7,0,21.3,0.2,32c0,2.4,0.6,4.9,1,7.3c0,15.4-0.1,30.9,0,46.3c0,0.7,0.4,1.5,0.7,2.2
		c0.6,0.9,1.1,1.9,1.9,2.7c49.1,49.1,98.2,98.1,147.3,147.1C269.1,503.3,269,503.9,269.1,504.3z" />
		<path class="st1" d="M269.1,504.3c-0.1-0.4,0-1-0.3-1.3c-49.1-49.1-98.2-98.1-147.3-147.1c-0.8-0.8-1.3-1.8-1.9-2.7
		c11.4,0,22.8,0,34.2-0.1c0,2.6-0.2,5.2,0,7.7c0.9,10.3,8.3,19,18.4,21.9c10,2.9,20.9-0.7,27.3-8.8c4.9-6.2,6-13.2,5.3-20.8
		c2,0,3.9-0.1,5.9-0.1c15.3,0,30.5-0.1,45.8-0.1c1.4,0,2.9,0.1,4.3,0.1c20.1,0,40.2,0,60.4,0c0,2.9-0.3,5.8,0.1,8.6
		c1.6,10.5,7.7,17.6,17.7,20.7c10.2,3.2,19.2,0.6,26.6-7.1c5.9-6.2,7.4-13.9,6.6-22.2c13.6,0,27.1,0,40.8,0c0.1-1.2,0.2-2,0.2-2.8
		c0-31.4,0-62.8-0.1-94.3c0-1.4-0.8-3.2-1.8-4.3c-14-15.2-28.1-30.2-42.1-45.4c-1.4-1.5-2.8-2.1-4.8-2.1c-13,0.1-25.9,0-38.9,0.1
		c0-16.8-0.1-33.7-0.2-50.5c0-2-0.4-4.1-0.6-6.1c1,0.8,2,1.4,2.9,2.3c55.6,55.5,111.1,111.1,166.7,166.7c0.8,0.8,1.5,1.7,2.2,2.6
		c-5.7,22.9-14.8,44.3-27,64.4c-31.1,51.2-74.9,87-131.3,107.2c-21.1,7.6-42.8,11.8-65.2,13.4C271.8,504.4,270.5,504.3,269.1,504.3z
		" />
		<path class="st2" d="M119.1,304.7c-0.3-2.4-0.9-4.9-1-7.3c-0.1-10.7-0.1-21.3-0.2-32c0.1-8.2,0.1-16.5,0.2-24.7
		c1.2-0.1,2.5-0.3,3.7-0.3c32.7,0,65.3,0,98,0c0.9,0,1.9,0.1,2.8,0c3.1-0.3,4.9-2.4,4.9-5.4c0-2.9-1.9-5.1-4.8-5.5
		c-0.9-0.1-1.9-0.1-2.8-0.1c-19.7,0-39.4,0-59.1,0c-14.2,0-28.4-0.1-42.6-0.1c0-5,0-9.9,0-14.9c1.7,0,3.3-0.1,5-0.1
		c34.2,0,68.5,0,102.7,0c1,0,2.1,0.1,3.1,0c3-0.3,4.9-2.5,4.8-5.5c-0.1-3.5-2.2-5.2-6.6-5.2c-31.9,0-63.9,0-95.8,0
		c-4.4,0-8.7-0.1-13.1-0.1c0-5-0.1-10.1-0.1-15.1c1.2,0,2.5-0.1,3.7-0.1c36.7,0,73.4,0,110.1,0c1.1,0,2.3,0.1,3.4-0.1
		c2.7-0.3,4.5-2.3,4.6-5c0.2-3.7-2.1-5.7-6.8-5.7c-37.1,0-74.2,0-111.3,0c-1.2,0-2.5-0.1-3.7-0.1c0-8.1,0-16.2,0-24.3
		c0-7.3,3.2-10.4,10.4-10.4c41.8,0,83.5,0,125.3,0c0.9,0,1.9,0.1,2.8,0.1c0,55.3,0,110.7,0,166c-0.4,0-0.8,0.1-1.2,0.1
		c-42.5,0-85,0-127.5,0C124.1,308.9,121.3,307.5,119.1,304.7z" />
		<path class="st3" d="M256.6,308.8c0-55.3,0-110.7,0-166c20.2,0,40.4-0.1,60.6-0.1c3.5,0,6,2.1,7.7,5c0.2,2,0.6,4.1,0.6,6.1
		c0.1,16.8,0.1,33.7,0.2,50.5c0,1.2-0.1,2.5-0.1,3.7c0,29.9-0.1,59.7,0.1,89.6c0,6.9-3.3,11.5-11.2,11.4c-19.3-0.3-38.6,0-57.8,0
		L256.6,308.8z" />
		<path class="st4" d="M118.1,177.4c1.2,0,2.5,0.1,3.7,0.1c37.1,0,74.2,0,111.3,0c4.7,0,7,1.9,6.8,5.7c-0.1,2.7-1.9,4.7-4.6,5
		c-1.1,0.1-2.3,0.1-3.4,0.1c-36.7,0-73.4,0-110.1,0c-1.2,0-2.5,0.1-3.7,0.1c-0.9,0-1.9-0.1-2.8-0.1c-15.8,0-31.5-0.1-47.3-0.1
		c-2.5-1.7-4.4-3.7-3.2-6.9c1.1-3.2,3.7-3.8,6.7-3.8C87,177.5,102.5,177.4,118.1,177.4z" />
		<path class="st5" d="M118.2,203.5c4.4,0,8.7,0.1,13.1,0.1c31.9,0,63.9,0,95.8,0c4.4,0,6.6,1.8,6.6,5.2c0,3-1.8,5.2-4.8,5.5
		c-1,0.1-2.1,0-3.1,0c-34.2,0-68.5,0-102.7,0c-1.7,0-3.3,0.1-5,0.1c-11.1,0-22.2-0.1-33.3-0.1c-4.9-2.9-5.3-6.3-1-10.5
		c1.6-0.1,3.3-0.2,5-0.2C98.6,203.5,108.4,203.5,118.2,203.5z" />
		<path class="st6" d="M118.2,229.3c14.2,0,28.4,0.1,42.6,0.1c19.7,0,39.4,0,59.1,0c0.9,0,1.9-0.1,2.8,0.1c2.9,0.4,4.9,2.6,4.8,5.5
		c0,3-1.9,5-4.9,5.4c-0.9,0.1-1.9,0-2.8,0c-32.7,0-65.3,0-98,0c-1.2,0-2.5,0.2-3.7,0.3c-1.1-0.1-2.3-0.3-3.4-0.3
		c-7.1,0-14.1-0.1-21.2-0.1c-2.7-1.4-4.3-3.5-3.6-6.8c0.6-2.8,2.9-4.1,6.8-4.2c0.8,0,1.6-0.1,2.5-0.1
		C105.5,229.3,111.8,229.3,118.2,229.3z" />
		<path class="st7" d="M118.2,203.5c-9.8,0-19.6,0.1-29.4,0.1c-1.7,0-3.3,0.1-5,0.2c-1.3-1.1-2.6-2.2-3.8-3.4c-4-4.1-8-8.2-12-12.3
		c15.8,0,31.5,0,47.3,0.1c0.9,0,1.9,0.1,2.8,0.1C118.1,193.4,118.1,198.4,118.2,203.5z" />
		<path class="st1" d="M118.2,229.3c-6.3,0-12.7,0-19,0c-4.5-4.4-8.9-8.7-13.4-13.1c-0.5-0.5-0.7-1.2-1-1.8c11.1,0,22.2,0.1,33.3,0.1
		C118.1,219.4,118.1,224.3,118.2,229.3z" />
		<path class="st1" d="M93.6,240.3c7.1,0,14.1,0,21.2,0.1c1.1,0,2.3,0.2,3.4,0.3c-0.1,8.2-0.1,16.5-0.2,24.7
		C109.8,257,101.7,248.6,93.6,240.3z" />
		<path class="st8" d="M256.6,352.9c0-14.6,0-29.3,0-43.9c19.3,0,38.6-0.3,57.8,0c8,0.1,11.3-4.4,11.2-11.4
		c-0.2-29.9-0.1-59.7-0.1-89.6c0-1.2,0.1-2.5,0.1-3.7c13,0,25.9,0,38.9-0.1c2,0,3.4,0.6,4.8,2.1c14,15.2,28.1,30.2,42.1,45.4
		c1,1.1,1.8,2.8,1.8,4.3c0.1,31.4,0.1,62.8,0.1,94.3c0,0.8-0.1,1.6-0.2,2.8c-13.7,0-27.3,0-40.8,0c-0.4-1.2-0.8-2.3-1.2-3.5
		c-5.2-15.3-23-22.1-37.1-14.1c-6.9,3.9-10.8,10-12.8,17.6c-20.1,0-40.2,0-60.4,0C259.5,353.1,258.1,353,256.6,352.9z M395.4,291.4
		c0.1-0.7,0.3-1.1,0.3-1.6c0.1-8.3,0.3-16.6,0.3-24.9c0-1.5-0.7-3.2-1.7-4.3c-9.9-10.9-20.1-21.5-29.7-32.6c-3.4-4-6.9-5.7-11.9-5.1
		c-3.6,0.4-7.3,0.1-10.9,0.1c0,23.2,0,45.8,0,68.5C359.7,291.4,377.5,291.4,395.4,291.4z" />
		<path class="st9"
			d="M153.9,353.1c2-7.6,6-13.8,13.1-17.7c14.2-7.8,31.8-0.9,36.9,14.5c0.4,1.1,0.7,2.1,1.1,3.2
		c0.6,7.6-0.4,14.6-5.3,20.8c-6.5,8.1-17.3,11.7-27.3,8.8c-10.1-2.9-17.5-11.6-18.4-21.9C153.7,358.3,153.9,355.7,153.9,353.1z
		 M179.3,369.3c6.4,0,11.4-4.9,11.5-11.3c0-6.4-5-11.6-11.3-11.6c-6.2,0-11.4,5.1-11.6,11.4C167.8,364,173,369.3,179.3,369.3z" />
		<path class="st10"
			d="M321.3,353.1c1.9-7.5,5.9-13.6,12.8-17.6c14.1-8,31.9-1.2,37.1,14.1c0.4,1.2,0.8,2.3,1.2,3.5
		c0.9,8.3-0.6,16-6.6,22.2c-7.4,7.7-16.4,10.3-26.6,7.1c-10.1-3.1-16.1-10.2-17.7-20.7C321,358.9,321.3,356,321.3,353.1z M358.2,358
		c0-6.4-5.1-11.6-11.3-11.5c-6.3,0.1-11.5,5.3-11.6,11.5c-0.1,6,5.3,11.4,11.5,11.4C353.3,369.3,358.2,364.5,358.2,358z" />
		<path class="st11"
			d="M395.4,291.4c-17.9,0-35.7,0-53.8,0c0-22.7,0-45.3,0-68.5c3.6,0,7.3,0.3,10.9-0.1c5.1-0.5,8.5,1.2,11.9,5.1
		c9.6,11.1,19.9,21.7,29.7,32.6c1,1.1,1.7,2.9,1.7,4.3c0.1,8.3-0.1,16.6-0.3,24.9C395.6,290.3,395.5,290.8,395.4,291.4z" />
		<path class="st2" d="M179.3,369.3c-6.3,0-11.5-5.4-11.4-11.5c0.1-6.3,5.3-11.5,11.6-11.4c6.3,0,11.3,5.2,11.3,11.6
		C190.7,364.4,185.7,369.4,179.3,369.3z" />
		<path class="st3" d="M358.2,358c0,6.5-4.9,11.4-11.4,11.4c-6.2,0-11.6-5.4-11.5-11.4c0.1-6.3,5.3-11.4,11.6-11.5
		C353,346.3,358.2,351.6,358.2,358z" />
	</g>
</svg>